<svg id="svg" version="1.1" width="400" height="400" viewBox="0 0 400 400" xmlns="http://www.w3.org/2000/svg" xmlns:xlink="http://www.w3.org/1999/xlink" ><g id="svgg"><path id="path0" d="" stroke="none" fill="#000000" fill-rule="evenodd"></path><path id="path1" d="M88.175 66.900 L 87.000 68.200 88.300 67.025 C 89.512 65.930,89.784 65.600,89.475 65.600 C 89.406 65.600,88.821 66.185,88.175 66.900 M311.800 69.200 C 312.659 70.080,313.452 70.800,313.562 70.800 C 313.672 70.800,313.059 70.080,312.200 69.200 C 311.341 68.320,310.548 67.600,310.438 67.600 C 310.328 67.600,310.941 68.320,311.800 69.200 M85.178 69.500 L 83.800 71.000 85.300 69.622 C 86.696 68.338,86.984 68.000,86.678 68.000 C 86.612 68.000,85.937 68.675,85.178 69.500 M77.400 76.800 C 74.106 80.100,71.500 82.800,71.610 82.800 C 71.720 82.800,74.506 80.100,77.800 76.800 C 81.094 73.500,83.700 70.800,83.590 70.800 C 83.480 70.800,80.694 73.500,77.400 76.800 M319.800 76.800 C 323.094 80.100,325.880 82.800,325.990 82.800 C 326.100 82.800,323.494 80.100,320.200 76.800 C 316.906 73.500,314.120 70.800,314.010 70.800 C 313.900 70.800,316.506 73.500,319.800 76.800 M69.978 84.700 L 68.600 86.200 70.100 84.822 C 71.496 83.538,71.784 83.200,71.478 83.200 C 71.412 83.200,70.737 83.875,69.978 84.700 M327.400 84.800 C 328.259 85.680,329.052 86.400,329.162 86.400 C 329.272 86.400,328.659 85.680,327.800 84.800 C 326.941 83.920,326.148 83.200,326.038 83.200 C 325.928 83.200,326.541 83.920,327.400 84.800 M67.375 87.700 L 66.200 89.000 67.500 87.825 C 68.712 86.730,68.984 86.400,68.675 86.400 C 68.606 86.400,68.021 86.985,67.375 87.700 M122.175 110.100 L 121.000 111.400 122.300 110.225 C 123.015 109.579,123.600 108.994,123.600 108.925 C 123.600 108.616,123.270 108.888,122.175 110.100 M115.194 116.700 L 109.800 122.200 115.300 116.806 C 120.409 111.794,120.981 111.200,120.694 111.200 C 120.636 111.200,118.161 113.675,115.194 116.700 M108.575 123.700 L 107.400 125.000 108.700 123.825 C 109.912 122.730,110.184 122.400,109.875 122.400 C 109.806 122.400,109.221 122.985,108.575 123.700 M69.800 311.200 C 70.659 312.080,71.452 312.800,71.562 312.800 C 71.672 312.800,71.059 312.080,70.200 311.200 C 69.341 310.320,68.548 309.600,68.438 309.600 C 68.328 309.600,68.941 310.320,69.800 311.200 M327.381 311.300 L 325.800 313.000 327.500 311.419 C 328.435 310.549,329.200 309.784,329.200 309.719 C 329.200 309.416,328.852 309.719,327.381 311.300 M77.400 319.200 C 80.694 322.500,83.480 325.200,83.590 325.200 C 83.700 325.200,81.094 322.500,77.800 319.200 C 74.506 315.900,71.720 313.200,71.610 313.200 C 71.500 313.200,74.106 315.900,77.400 319.200 M319.800 319.200 C 316.506 322.500,313.900 325.200,314.010 325.200 C 314.120 325.200,316.906 322.500,320.200 319.200 C 323.494 315.900,326.100 313.200,325.990 313.200 C 325.880 313.200,323.094 315.900,319.800 319.200 M85.400 326.800 C 86.259 327.680,87.052 328.400,87.162 328.400 C 87.272 328.400,86.659 327.680,85.800 326.800 C 84.941 325.920,84.148 325.200,84.038 325.200 C 83.928 325.200,84.541 325.920,85.400 326.800 M311.781 326.900 L 310.200 328.600 311.900 327.019 C 312.835 326.149,313.600 325.384,313.600 325.319 C 313.600 325.016,313.252 325.319,311.781 326.900 " stroke="none" fill="#393939" fill-rule="evenodd"></path><path id="path2" d="M185.800 27.051 C 152.768 30.382,126.556 39.643,101.847 56.715 C 13.352 117.857,1.861 243.101,77.780 319.020 C 152.201 393.442,273.568 384.286,336.875 299.474 L 340.403 294.747 340.302 244.474 L 340.200 194.200 297.800 194.200 L 255.400 194.200 255.293 203.695 L 255.186 213.190 240.693 213.295 L 226.200 213.400 226.093 222.695 L 225.985 231.991 210.693 232.095 L 195.400 232.200 195.293 242.095 L 195.186 251.991 179.293 252.095 L 163.400 252.200 163.293 262.700 L 163.187 273.200 135.021 273.200 L 106.856 273.200 104.096 269.500 C 61.071 211.819,78.910 131.383,142.564 96.052 C 174.008 78.599,214.111 76.229,247.847 89.830 L 251.300 91.222 291.536 91.206 C 313.665 91.196,331.908 91.052,332.076 90.884 C 332.919 90.041,315.825 72.328,308.000 65.937 C 281.891 44.612,252.830 32.153,218.940 27.754 C 214.419 27.167,189.822 26.645,185.800 27.051 " stroke="none" fill="#434343" fill-rule="evenodd"></path><path id="path3" d="" stroke="none" fill="#080800" fill-rule="evenodd"></path><path id="path4" d="" stroke="none" fill="#1a0d00" fill-rule="evenodd"></path><path id="path5" d="" stroke="none" fill="#2e0b00" fill-rule="evenodd"></path><path id="path6" d="" stroke="none" fill="#291200" fill-rule="evenodd"></path><path id="path7" d="" stroke="none" fill="#3d1400" fill-rule="evenodd"></path><path id="path8" d="" stroke="none" fill="#480000" fill-rule="evenodd"></path><path id="path9" d="" stroke="none" fill="#480e00" fill-rule="evenodd"></path><path id="path10" d="" stroke="none" fill="#481900" fill-rule="evenodd"></path><path id="path11" d="" stroke="none" fill="#562400" fill-rule="evenodd"></path><path id="path12" d="" stroke="none" fill="#5f1900" fill-rule="evenodd"></path><path id="path13" d="" stroke="none" fill="#662b00" fill-rule="evenodd"></path><path id="path14" d="" stroke="none" fill="#7e3300" fill-rule="evenodd"></path><path id="path15" d="" stroke="none" fill="#993300" fill-rule="evenodd"></path><path id="path16" d="" stroke="none" fill="#9b3f00" fill-rule="evenodd"></path><path id="path17" d="" stroke="none" fill="#aa2a00" fill-rule="evenodd"></path><path id="path18" d="" stroke="none" fill="#b84c00" fill-rule="evenodd"></path><path id="path19" d="" stroke="none" fill="#d63d00" fill-rule="evenodd"></path><path id="path20" d="" stroke="none" fill="#cc4a00" fill-rule="evenodd"></path><path id="path21" d="" stroke="none" fill="#cb5400" fill-rule="evenodd"></path><path id="path22" d="" stroke="none" fill="#da5800" fill-rule="evenodd"></path><path id="path23" d="" stroke="none" fill="#ff0000" fill-rule="evenodd"></path><path id="path24" d="" stroke="none" fill="#e75c00" fill-rule="evenodd"></path><path id="path25" d="" stroke="none" fill="#ff3f00" fill-rule="evenodd"></path><path id="path26" d="" stroke="none" fill="#fe4b00" fill-rule="evenodd"></path><path id="path27" d="" stroke="none" fill="#f26400" fill-rule="evenodd"></path><path id="path28" d="" stroke="none" fill="#ff5500" fill-rule="evenodd"></path><path id="path29" d="" stroke="none" fill="#ff5f00" fill-rule="evenodd"></path><path id="path30" d="M200.600 121.733 C 199.720 122.023,198.550 122.510,198.000 122.815 C 197.450 123.120,196.873 123.334,196.717 123.291 C 195.938 123.072,191.519 127.867,190.406 130.137 C 188.505 134.015,188.345 142.113,190.146 143.278 C 190.383 143.431,190.462 143.671,190.322 143.812 C 190.181 143.952,189.707 143.707,189.267 143.267 C 188.827 142.827,188.376 142.557,188.266 142.668 C 188.155 142.778,187.864 142.493,187.618 142.034 C 187.373 141.575,186.908 141.200,186.586 141.200 C 186.264 141.200,186.000 141.020,186.000 140.800 C 186.000 140.580,185.724 140.400,185.387 140.400 C 185.051 140.400,184.672 140.131,184.546 139.802 C 184.419 139.474,184.154 139.305,183.955 139.428 C 183.757 139.550,183.486 139.369,183.354 139.025 C 183.222 138.681,182.874 138.400,182.580 138.400 C 182.286 138.400,181.810 138.073,181.523 137.673 C 181.235 137.274,179.920 136.197,178.600 135.281 C 177.280 134.365,175.422 133.030,174.471 132.315 C 171.958 130.426,165.564 130.652,165.527 132.632 C 165.523 132.834,165.345 132.951,165.130 132.890 C 164.916 132.830,164.855 132.966,164.996 133.193 C 165.136 133.420,164.970 133.713,164.628 133.845 C 164.285 133.976,164.104 134.245,164.226 134.442 C 164.348 134.639,164.257 134.800,164.024 134.800 C 163.791 134.800,163.600 135.044,163.600 135.342 C 163.600 135.639,163.169 136.348,162.642 136.917 C 162.115 137.485,161.755 138.021,161.841 138.108 C 161.928 138.195,161.292 139.054,160.428 140.018 C 159.565 140.982,158.946 141.913,159.054 142.088 C 159.162 142.263,158.970 142.513,158.628 142.645 C 158.285 142.776,158.101 143.039,158.218 143.229 C 158.335 143.419,158.064 143.803,157.616 144.083 C 157.167 144.363,156.800 144.796,156.800 145.044 C 156.800 145.292,156.064 146.420,155.164 147.550 C 154.265 148.680,153.490 149.865,153.444 150.183 C 153.397 150.501,153.014 151.142,152.593 151.608 C 150.761 153.632,151.804 158.180,154.464 159.768 C 155.551 160.417,159.600 160.531,159.600 159.913 C 159.600 159.741,159.805 159.600,160.056 159.600 C 160.307 159.600,160.770 159.285,161.086 158.900 C 161.461 158.442,161.570 158.407,161.400 158.800 C 161.257 159.130,161.424 159.051,161.770 158.624 C 162.117 158.196,162.400 157.611,162.400 157.324 C 162.400 157.036,162.580 156.800,162.800 156.800 C 163.020 156.800,163.200 156.556,163.200 156.258 C 163.200 155.961,163.631 155.252,164.158 154.683 C 164.685 154.115,165.041 153.575,164.950 153.484 C 164.859 153.392,165.416 152.628,166.189 151.784 C 166.961 150.941,167.697 149.924,167.824 149.525 C 167.950 149.126,168.232 148.800,168.451 148.800 C 168.669 148.800,168.736 148.620,168.600 148.400 C 168.464 148.180,168.543 148.000,168.776 148.000 C 169.009 148.000,169.200 147.749,169.200 147.443 C 169.200 147.136,169.470 146.782,169.800 146.655 C 170.130 146.529,170.400 146.149,170.400 145.813 C 170.400 145.476,170.580 145.200,170.800 145.200 C 171.020 145.200,171.200 144.930,171.200 144.600 C 171.200 143.787,171.839 143.843,172.477 144.711 C 173.130 145.599,178.492 149.427,178.900 149.296 C 179.506 149.102,179.167 149.758,177.800 151.426 C 177.030 152.366,176.400 153.320,176.400 153.547 C 176.400 153.774,176.175 154.104,175.900 154.280 C 175.625 154.456,175.051 155.285,174.625 156.123 C 174.198 156.960,173.447 158.080,172.956 158.610 C 172.464 159.140,171.959 159.899,171.833 160.296 C 171.707 160.693,171.083 161.588,170.446 162.286 C 169.809 162.983,169.383 163.650,169.501 163.768 C 169.618 163.885,169.420 164.094,169.060 164.232 C 168.699 164.371,168.487 164.618,168.588 164.781 C 168.690 164.945,168.419 165.459,167.986 165.923 C 167.554 166.387,167.200 166.878,167.200 167.014 C 167.200 167.431,163.072 173.200,162.773 173.200 C 162.619 173.200,162.390 173.515,162.264 173.900 C 161.761 175.433,154.857 185.602,154.128 185.882 C 153.868 185.982,153.454 186.635,153.206 187.332 C 152.779 188.536,152.728 188.561,152.191 187.841 C 151.880 187.424,151.720 186.929,151.836 186.741 C 151.952 186.553,151.857 186.400,151.624 186.400 C 151.391 186.400,151.239 186.265,151.288 186.100 C 151.336 185.935,150.897 185.080,150.312 184.200 C 149.727 183.320,149.193 182.334,149.124 182.010 C 149.056 181.685,148.775 181.177,148.501 180.882 C 148.226 180.586,147.882 179.870,147.737 179.290 C 146.542 174.532,136.779 174.662,136.350 179.442 C 136.144 181.745,136.206 183.474,136.510 183.882 C 136.707 184.148,136.740 184.573,136.583 184.827 C 136.426 185.081,136.505 185.418,136.758 185.574 C 137.011 185.731,137.303 186.295,137.405 186.828 C 137.508 187.361,137.774 187.858,137.996 187.932 C 138.218 188.006,138.404 188.367,138.409 188.733 C 138.414 189.100,138.770 189.850,139.200 190.400 C 139.630 190.950,139.986 191.625,139.991 191.900 C 139.996 192.175,140.210 192.400,140.467 192.400 C 140.723 192.400,140.821 192.513,140.683 192.651 C 140.396 192.937,141.433 195.090,142.252 195.909 C 142.553 196.210,142.800 196.714,142.800 197.029 C 142.800 197.343,142.980 197.600,143.200 197.600 C 143.420 197.600,143.600 197.960,143.600 198.400 C 143.600 198.840,143.760 199.200,143.957 199.200 C 144.153 199.200,144.611 199.875,144.975 200.700 C 145.950 202.911,148.249 206.088,149.290 206.667 C 151.966 208.152,156.866 206.375,157.374 203.733 C 157.557 202.787,162.269 195.970,163.083 195.475 C 163.376 195.297,163.512 194.981,163.383 194.773 C 163.254 194.565,163.431 194.286,163.775 194.154 C 164.119 194.022,164.400 193.683,164.400 193.400 C 164.400 193.117,164.681 192.778,165.025 192.646 C 165.369 192.514,165.544 192.233,165.414 192.023 C 165.284 191.812,165.548 191.442,166.000 191.200 C 166.452 190.958,166.717 190.589,166.588 190.380 C 166.458 190.171,166.543 190.000,166.776 190.000 C 167.009 190.000,167.200 189.741,167.200 189.424 C 167.200 188.273,168.031 188.370,168.449 189.570 C 168.685 190.246,169.041 190.800,169.239 190.800 C 169.438 190.800,169.600 191.145,169.600 191.567 C 169.600 191.988,169.766 192.393,169.970 192.467 C 170.173 192.540,170.398 192.870,170.470 193.200 C 170.541 193.530,170.702 193.890,170.828 194.000 C 170.953 194.110,171.569 195.325,172.198 196.700 C 172.826 198.075,173.453 199.200,173.590 199.200 C 173.727 199.200,174.067 199.830,174.346 200.600 C 174.624 201.370,175.020 202.000,175.226 202.000 C 175.432 202.000,175.600 202.256,175.600 202.569 C 175.600 202.882,176.331 204.493,177.224 206.149 L 178.848 209.160 177.489 211.178 C 176.741 212.288,176.041 213.107,175.932 212.998 C 175.823 212.889,175.730 213.025,175.726 213.300 C 175.719 213.827,166.721 227.227,165.004 229.268 C 163.592 230.947,163.787 236.000,165.264 236.000 C 165.449 236.000,165.600 236.231,165.600 236.514 C 165.600 237.357,167.995 238.513,170.084 238.677 C 172.023 238.830,175.437 237.507,174.986 236.777 C 174.886 236.616,175.054 236.388,175.358 236.272 C 175.998 236.026,180.001 230.362,179.881 229.872 C 179.836 229.691,180.119 229.365,180.508 229.147 C 180.898 228.929,181.112 228.582,180.985 228.375 C 180.857 228.169,180.918 228.000,181.120 228.000 C 181.478 228.000,184.319 223.708,184.887 222.308 C 185.045 221.918,185.360 221.600,185.587 221.600 C 185.814 221.600,186.000 221.349,186.000 221.043 C 186.000 220.736,186.281 220.378,186.625 220.246 C 186.969 220.114,187.146 219.835,187.017 219.627 C 186.888 219.419,187.044 219.103,187.363 218.925 C 187.682 218.746,187.981 218.420,188.028 218.200 C 188.074 217.980,188.537 217.243,189.056 216.562 C 189.575 215.881,190.000 215.021,190.000 214.650 C 190.000 214.279,190.269 213.872,190.598 213.746 C 190.926 213.619,191.096 213.355,190.974 213.158 C 190.852 212.961,190.907 212.800,191.096 212.800 C 192.386 212.800,191.295 206.505,189.330 202.600 C 188.222 200.400,187.088 198.015,186.810 197.300 C 186.531 196.585,186.115 196.000,185.885 196.000 C 185.655 196.000,185.579 195.888,185.716 195.750 C 185.853 195.613,185.607 194.797,185.168 193.937 L 184.370 192.374 186.485 189.287 C 187.648 187.589,188.735 186.140,188.900 186.067 C 189.065 185.993,189.200 185.721,189.200 185.463 C 189.200 185.204,189.695 184.458,190.300 183.806 C 190.905 183.153,191.400 182.473,191.400 182.295 C 191.400 182.117,191.670 181.800,192.000 181.592 C 192.330 181.383,192.456 181.209,192.281 181.206 C 191.826 181.197,194.359 177.600,194.819 177.600 C 195.029 177.600,195.179 177.465,195.153 177.300 C 195.031 176.532,195.234 175.974,195.561 176.176 C 195.760 176.299,196.105 175.874,196.329 175.231 C 196.553 174.589,197.110 173.690,197.568 173.232 C 198.026 172.774,198.265 172.394,198.100 172.387 C 197.935 172.380,198.127 172.127,198.527 171.824 C 198.926 171.521,199.230 171.211,199.201 171.136 C 199.025 170.679,199.756 169.649,200.104 169.864 C 200.339 170.010,200.406 169.933,200.255 169.689 C 200.108 169.451,200.181 169.135,200.418 168.989 C 200.655 168.842,201.029 168.251,201.248 167.675 C 201.679 166.539,202.381 167.053,202.394 168.514 C 202.397 168.907,202.650 169.627,202.955 170.114 C 203.260 170.601,203.629 171.675,203.773 172.500 C 203.918 173.325,204.219 174.000,204.442 174.000 C 204.665 174.000,204.747 174.161,204.626 174.359 C 203.990 175.387,205.596 177.212,209.400 179.787 C 211.600 181.276,213.528 182.698,213.685 182.947 C 213.842 183.196,214.150 183.400,214.368 183.400 C 214.587 183.400,215.057 183.760,215.412 184.200 C 215.768 184.640,215.943 184.730,215.800 184.400 C 215.630 184.007,215.739 184.042,216.114 184.500 C 216.430 184.885,216.899 185.200,217.157 185.200 C 217.414 185.200,217.728 185.469,217.854 185.798 C 217.981 186.126,218.236 186.301,218.422 186.186 C 218.608 186.072,218.960 186.352,219.205 186.810 C 220.277 188.812,224.345 189.900,226.483 188.755 C 227.753 188.076,229.648 186.001,229.386 185.577 C 229.258 185.370,229.319 185.200,229.523 185.200 C 230.089 185.200,229.866 180.689,229.290 180.497 C 229.020 180.407,228.800 180.168,228.800 179.967 C 228.800 179.548,227.334 178.000,226.938 178.000 C 226.794 178.000,226.086 177.550,225.364 177.000 C 224.643 176.450,223.960 176.000,223.845 176.000 C 223.730 176.000,223.186 175.550,222.636 175.000 C 222.086 174.450,221.377 174.000,221.061 174.000 C 220.745 174.000,220.378 173.719,220.246 173.375 C 220.114 173.031,219.823 172.862,219.600 173.000 C 219.377 173.138,219.086 172.969,218.954 172.625 C 218.822 172.281,218.541 172.000,218.329 172.000 C 218.116 172.000,217.692 171.775,217.385 171.500 C 216.301 170.528,215.786 170.152,214.500 169.394 C 213.785 168.972,213.200 168.317,213.200 167.937 C 213.200 167.558,213.017 167.134,212.793 166.996 C 212.570 166.858,212.491 166.577,212.617 166.372 C 212.744 166.168,212.685 166.000,212.488 166.000 C 212.290 166.000,211.894 165.235,211.607 164.300 C 211.320 163.365,210.738 161.840,210.312 160.911 C 209.887 159.982,209.671 159.009,209.831 158.749 C 210.004 158.470,209.952 158.382,209.704 158.535 C 209.470 158.680,209.170 158.334,209.023 157.749 C 208.724 156.559,208.240 156.026,206.766 155.268 C 206.198 154.975,205.243 154.345,204.644 153.868 L 203.554 153.000 205.877 153.057 C 207.155 153.088,208.406 152.947,208.658 152.743 C 208.910 152.539,209.270 152.408,209.458 152.452 C 210.079 152.596,212.000 151.920,212.000 151.557 C 212.000 151.360,212.350 151.200,212.777 151.200 C 214.187 151.200,218.287 146.952,219.666 144.061 C 225.479 131.882,213.250 117.562,200.600 121.733 " stroke="none" fill="#ff6a00" fill-rule="evenodd"></path><path id="path31" d="M265.613 96.523 C 265.070 96.785,264.170 97.422,263.613 97.938 L 262.600 98.877 262.495 142.438 C 262.426 170.756,262.251 186.000,261.995 186.000 C 261.778 186.000,261.600 186.900,261.600 188.000 C 261.600 191.410,262.274 191.773,268.894 191.930 L 274.390 192.060 274.859 191.030 C 275.117 190.464,275.480 190.000,275.664 190.000 C 275.849 190.000,276.000 171.550,276.000 149.000 L 276.000 108.000 292.600 108.000 C 307.902 108.000,312.312 108.290,307.300 108.965 C 303.125 109.528,302.400 109.684,302.400 110.021 C 302.400 110.214,301.501 110.492,300.403 110.637 C 299.250 110.790,297.981 111.267,297.403 111.764 L 296.400 112.625 296.407 147.413 L 296.414 182.200 297.349 183.086 C 297.863 183.573,299.030 184.091,299.942 184.237 C 300.854 184.383,301.600 184.659,301.600 184.851 C 301.600 185.043,302.036 185.200,302.569 185.200 C 303.802 185.200,307.736 186.078,308.000 186.412 C 308.110 186.551,309.445 186.868,310.966 187.115 C 312.487 187.363,313.842 187.744,313.977 187.964 C 314.113 188.183,315.883 188.583,317.912 188.853 C 319.940 189.123,321.600 189.483,321.600 189.653 C 321.600 190.071,324.299 190.795,325.867 190.798 C 326.563 190.799,327.204 191.012,327.290 191.270 C 327.645 192.335,338.453 192.213,339.700 191.130 L 340.800 190.175 340.800 145.108 L 340.800 100.040 338.986 98.120 L 337.172 96.200 301.886 96.123 C 275.227 96.064,266.359 96.162,265.613 96.523 " stroke="none" fill="#ffab40" fill-rule="evenodd"></path></g></svg>